HIERARCHY
ROOT Hips
{
	OFFSET 0.00000 0.00000 0.00000
	CHANNELS 6 Xposition Yposition Zposition Zrotation Yrotation Xrotation 
	JOINT LHipJoint
	{
		OFFSET 0 0 0
		CHANNELS 3 Zrotation Yrotation Xrotation
		JOINT LeftUpLeg
		{
			OFFSET 1.84395 -1.68683 0.74144
			CHANNELS 3 Zrotation Yrotation Xrotation
			JOINT LeftLeg
			{
				OFFSET 2.27037 -6.23779 0.00000
				CHANNELS 3 Zrotation Yrotation Xrotation
				JOINT LeftFoot
				{
					OFFSET 2.56918 -7.05877 0.00000
					CHANNELS 3 Zrotation Yrotation Xrotation
					JOINT LeftToeBase
					{
						OFFSET 0.22276 -0.61202 1.71784
						CHANNELS 3 Zrotation Yrotation Xrotation
						End Site
						{
							OFFSET 0.00000 -0.00000 0.91613
						}
					}
				}
			}
		}
	}
	JOINT RHipJoint
	{
		OFFSET 0 0 0
		CHANNELS 3 Zrotation Yrotation Xrotation
		JOINT RightUpLeg
		{
			OFFSET -1.76833 -1.68684 0.74144
			CHANNELS 3 Zrotation Yrotation Xrotation
			JOINT RightLeg
			{
				OFFSET -2.49360 -6.85110 0.00000
				CHANNELS 3 Zrotation Yrotation Xrotation
				JOINT RightFoot
				{
					OFFSET -2.55538 -7.02085 0.00000
					CHANNELS 3 Zrotation Yrotation Xrotation
					JOINT RightToeBase
					{
						OFFSET -0.21516 -0.59115 1.68050
						CHANNELS 3 Zrotation Yrotation Xrotation
						End Site
						{
							OFFSET -0.00000 -0.00000 0.89604
						}
					}
				}
			}
		}
	}
	JOINT LowerBack
	{
		OFFSET 0 0 0
		CHANNELS 3 Zrotation Yrotation Xrotation
		JOINT Spine
		{
			OFFSET 0.06382 1.72312 -0.19613
			CHANNELS 3 Zrotation Yrotation Xrotation
			JOINT Spine1
			{
				OFFSET -0.00055 1.73507 0.23859
				CHANNELS 3 Zrotation Yrotation Xrotation
				JOINT Neck
				{
					OFFSET 0 0 0
					CHANNELS 3 Zrotation Yrotation Xrotation
					JOINT Neck1
					{
						OFFSET 0.03638 1.65562 0.09633
						CHANNELS 3 Zrotation Yrotation Xrotation
						JOINT Head
						{
							OFFSET 0.06388 1.62807 -0.32386
							CHANNELS 3 Zrotation Yrotation Xrotation
							End Site
							{
								OFFSET 0.00995 1.67644 -0.12021
							}
						}
					}
				}
				JOINT LeftShoulder
				{
					OFFSET 0 0 0
					CHANNELS 3 Zrotation Yrotation Xrotation
					JOINT LeftArm
					{
						OFFSET 3.09648 1.42991 0.28122
						CHANNELS 3 Zrotation Yrotation Xrotation
						JOINT LeftForeArm
						{
							OFFSET 5.11878 -0.00000 -0.00000
							CHANNELS 3 Zrotation Yrotation Xrotation
							JOINT LeftHand
							{
								OFFSET 3.59971 -0.00000 0.00000
								CHANNELS 3 Zrotation Yrotation Xrotation
								JOINT LeftFingerBase
								{
									OFFSET 0 0 0
									CHANNELS 3 Zrotation Yrotation Xrotation
									JOINT LeftHandIndex1
									{
										OFFSET 0.62877 -0.00000 0.00000
										CHANNELS 3 Zrotation Yrotation Xrotation
										End Site
										{
											OFFSET 0.50693 -0.00000 0.00000
										}
									}
								}
								JOINT LThumb
								{
									OFFSET 0 0 0
									CHANNELS 3 Zrotation Yrotation Xrotation
									End Site
									{
										OFFSET 0.51467 -0.00000 0.51467
									}
								}
							}
						}
					}
				}
				JOINT RightShoulder
				{
					OFFSET 0 0 0
					CHANNELS 3 Zrotation Yrotation Xrotation
					JOINT RightArm
					{
						OFFSET -3.33565 1.14597 0.05047
						CHANNELS 3 Zrotation Yrotation Xrotation
						JOINT RightForeArm
						{
							OFFSET -5.49020 -0.00000 0.00000
							CHANNELS 3 Zrotation Yrotation Xrotation
							JOINT RightHand
							{
								OFFSET -3.20659 -0.00000 -0.00000
								CHANNELS 3 Zrotation Yrotation Xrotation
								JOINT RightFingerBase
								{
									OFFSET 0 0 0
									CHANNELS 3 Zrotation Yrotation Xrotation
									JOINT RightHandIndex1
									{
										OFFSET -0.69188 -0.00000 0.00000
										CHANNELS 3 Zrotation Yrotation Xrotation
										End Site
										{
											OFFSET -0.55781 -0.00000 0.00000
										}
									}
								}
								JOINT RThumb
								{
									OFFSET 0 0 0
									CHANNELS 3 Zrotation Yrotation Xrotation
									End Site
									{
										OFFSET -0.56633 -0.00000 0.56633
									}
								}
							}
						}
					}
				}
			}
		}
	}
}
MOTION
Frames: 7
Frame Time: .0083333
-0.2477 17.5733 7.9272 -8.0846 -1.2469 7.6254 0.0000 0.0000 0.0000 -20.5416 -35.0079 22.9542 0.0522 -1.4746 -4.0558 -5.1999 38.9234 -31.7703 0.0515 1.4651 4.0295 0.0000 0.0000 0.0000 27.8484 22.7148 8.2254 -0.0066 -0.5257 1.4445 0.6990 -18.9049 -19.8554 -0.0242 -1.0052 2.7632 4.4537 1.8926 3.2160 1.0059 3.0188 -7.8479 -1.7666 1.1742 -9.9733 -0.0578 -2.3935 -13.1329 3.7400 -4.7601 32.2053 0.7560 -1.6119 13.0584 -0.0000 0.0000 0.0000 -87.5981 -7.8053 51.6074 69.6714 -58.3794 -42.4907 -0.0000 0.0000 -2.7933 25.3076 -2.8211 -1.3332 -7.1250 0.0000 -0.0000 -0.9877 26.8594 0.4350 -0.0000 0.0000 0.0000 88.0756 21.8303 72.8688 -68.1603 58.1187 -41.2057 0.0000 -0.0000 -4.5762 -15.7056 -58.2345 13.4455 7.1250 -0.0000 -0.0000 89.1230 -77.5679 -76.3679
-0.2484 17.5728 7.9314 -7.9423 -1.6189 7.6830 0.0000 0.0000 0.0000 -20.8384 -34.9767 23.0823 0.0526 -1.4803 -4.0714 -5.2423 39.1473 -32.2466 0.0562 1.5291 4.2059 0.0000 0.0000 0.0000 27.6548 22.7721 8.1927 -0.0065 -0.5201 1.4293 0.6950 -18.7676 -19.6267 -0.0105 -0.6617 1.8184 4.3236 2.0013 3.0070 0.9154 3.1336 -7.8455 -1.7943 1.2399 -9.8381 -0.0405 -2.3384 -13.3295 3.7171 -4.6894 32.3813 0.7535 -1.5750 13.1728 -0.0000 0.0000 0.0000 -87.4865 -7.8601 51.4151 69.5022 -58.3513 -42.3466 -0.0000 0.0000 -2.5499 25.4251 -2.7708 -1.3164 -7.1250 0.0000 -0.0000 -0.8974 26.9122 0.3941 -0.0000 0.0000 0.0000 88.3812 21.2990 76.2808 -57.9039 55.7250 -32.6029 0.0000 -0.0000 -16.8006 -10.8286 -61.3300 9.5269 7.1250 -0.0000 -0.0000 85.2993 75.5247 100.0519
-0.2478 17.5736 7.9341 -7.7392 -1.9585 7.7382 0.0000 0.0000 0.0000 -21.1759 -34.9132 23.1560 0.0524 -1.4779 -4.0647 -5.2393 39.2652 -32.6890 0.0617 1.6024 4.4080 0.0000 0.0000 0.0000 27.3718 22.7593 8.1292 -0.0062 -0.5086 1.3977 0.6871 -18.5893 -19.3618 -0.0027 -0.3368 0.9253 4.0558 2.1188 2.8990 0.8268 3.2594 -7.9123 -1.7499 1.3172 -9.8468 0.1878 -2.2930 -13.4668 3.5046 -4.6283 32.5878 0.6395 -1.5417 13.2768 0.0000 0.0000 0.0000 -87.4267 -7.7879 51.3199 69.3858 -58.3318 -42.2476 -0.0000 0.0000 -2.5093 25.4399 -2.5958 -1.2342 -7.1250 0.0000 -0.0000 -0.8847 27.1053 0.3845 0.0000 0.0000 0.0000 88.5024 20.7896 79.3488 -51.2370 53.4824 -27.1652 0.0000 -0.0000 -29.7955 -24.5083 -65.8820 22.5923 7.1250 -0.0000 -0.0000 117.4849 77.1391 129.7057
-0.2454 17.5733 7.9334 -7.6236 -2.2213 7.7770 0.0000 0.0000 0.0000 -21.3888 -34.8829 23.2115 0.0522 -1.4748 -4.0563 -5.1987 39.2954 -33.0962 0.0786 1.8080 4.9754 0.0000 0.0000 0.0000 27.1854 22.7652 8.0685 -0.0060 -0.5020 1.3795 0.6746 -18.4234 -19.1849 -0.0017 -0.2655 0.7295 3.9115 2.2980 2.9623 0.6996 3.4856 -7.9962 -1.8343 1.4291 -9.9646 0.2627 -2.3577 -13.6587 3.5960 -4.7871 32.7192 0.6365 -1.5833 13.3812 0.0000 -0.0000 0.0000 -87.3702 -7.7526 51.4960 69.2169 -58.3033 -42.1038 -0.0000 0.0000 -2.6158 25.2537 -2.4507 -1.1555 -7.1250 0.0000 -0.0000 -1.0265 27.2701 0.4422 0.0000 -0.0000 0.0000 88.3455 20.4989 80.9496 -47.1857 51.7954 -23.9443 0.0000 -0.0000 -36.7551 -30.6606 -66.4389 28.5199 7.1250 -0.0000 -0.0000 128.2365 77.1644 139.1509
-0.2418 17.5729 7.9295 -7.6595 -2.3724 7.7959 0.0000 0.0000 0.0000 -21.4030 -34.8921 23.2641 0.0525 -1.4789 -4.0676 -5.1747 39.3309 -33.3912 0.0920 1.9563 5.3848 0.0000 0.0000 0.0000 27.1899 22.7905 8.0128 -0.0063 -0.5138 1.4117 0.6639 -18.3150 -19.1036 -0.0013 -0.2347 0.6448 3.8846 2.4623 3.0893 0.6571 3.7093 -8.0082 -1.8958 1.5361 -10.0401 0.1013 -2.4763 -13.7625 3.8739 -4.9967 32.4561 0.7385 -1.6613 13.3106 0.0000 0.0000 0.0000 -87.3845 -7.8520 51.7568 68.9683 -58.2608 -41.8924 -0.0000 0.0000 -2.7413 25.1241 -2.3712 -1.1115 -7.1250 0.0000 -0.0000 -1.1257 27.3606 0.4825 0.0000 0.0000 0.0000 87.6700 20.5439 82.2967 -45.9921 51.2454 -23.0099 0.0000 -0.0000 -33.8686 -25.6625 -66.1117 23.7160 7.1250 -0.0000 -0.0000 119.8105 77.1098 131.8241
-0.2388 17.5744 7.9255 -7.7461 -2.4086 7.8458 0.0000 0.0000 0.0000 -21.3828 -35.0455 23.3545 0.0533 -1.4900 -4.0981 -5.2468 39.5293 -33.5455 0.0900 1.9350 5.3261 0.0000 0.0000 0.0000 27.2479 22.8260 7.9316 -0.0065 -0.5223 1.4351 0.6629 -18.2780 -19.0403 -0.0007 -0.1682 0.4623 3.7386 2.5094 3.0348 0.8038 3.7670 -7.9080 -1.6597 1.5873 -9.9102 -0.0807 -2.5241 -13.8738 3.9446 -5.0174 32.0650 0.7903 -1.6898 13.1749 -0.0000 -0.0000 0.0000 -87.5865 -8.0139 51.7371 68.7669 -58.2260 -41.7211 -0.0000 0.0000 -2.7267 25.0442 -2.2463 -1.0492 -7.1250 0.0000 -0.0000 -1.1867 27.5001 0.5048 -0.0000 -0.0000 0.0000 86.9822 20.8723 82.4383 -47.3839 51.8843 -24.1001 0.0000 -0.0000 -29.2623 -16.8648 -67.3329 15.6282 7.1250 -0.0000 -0.0000 111.9085 75.3139 126.5801
-0.2350 17.5769 7.9225 -7.8212 -2.3087 7.9534 0.0000 0.0000 0.0000 -21.3332 -35.3118 23.3672 0.0535 -1.4923 -4.1045 -5.3156 39.6899 -33.6014 0.0897 1.9315 5.3164 0.0000 0.0000 0.0000 27.2678 22.9034 7.8151 -0.0064 -0.5167 1.4199 0.6677 -18.3296 -19.0827 -0.0017 -0.2636 0.7243 3.7336 2.4319 3.2774 0.8697 3.6866 -8.0530 -1.5946 1.5418 -10.2281 0.0742 -2.4640 -13.8275 3.6854 -4.8783 31.9470 0.6835 -1.6480 13.0971 -0.0000 -0.0000 0.0000 -87.5970 -7.6120 51.4790 68.8796 -58.2455 -41.8170 -0.0000 0.0000 -2.5532 24.9222 -2.2900 -1.0636 -7.1250 0.0000 -0.0000 -1.2807 27.4543 0.5461 -0.0000 -0.0000 0.0000 87.0853 20.8980 80.7118 -51.2702 53.4951 -27.1919 0.0000 -0.0000 -27.4666 -14.0043 -66.8720 12.9181 7.1250 -0.0000 -0.0000 107.5262 75.0514 122.8016
